# Blender 3.5.1
# www.blender.org
mtllib hammer-simple.mtl
o Cube
v 1.000000 1.000000 -1.000000
v 1.000000 -1.000000 -1.000000
v 1.000000 1.000000 1.000000
v 1.000000 -1.000000 1.000000
v -1.000000 1.000000 -1.000000
v -1.000000 -1.000000 -1.000000
v -1.000000 1.000000 1.000000
v -1.000000 -1.000000 1.000000
v -0.710975 -0.710975 1.309729
v -0.710975 0.710975 1.309729
v 0.710975 0.710975 1.309729
v 0.710975 -0.710975 1.309729
v -0.894443 -0.894443 1.617312
v -0.894443 0.894443 1.617312
v 0.894443 0.894443 1.617312
v 0.894443 -0.894443 1.617312
v 1.000000 0.333333 -1.000000
v 1.000000 -0.333333 -1.000000
v -1.000000 -0.333333 1.000000
v -1.000000 0.333333 1.000000
v 1.000000 0.333333 1.000000
v 1.000000 -0.333333 1.000000
v -1.000000 0.333333 -1.000000
v -1.000000 -0.333333 -1.000000
v -0.710975 -0.236992 1.309729
v -0.710975 0.236992 1.309729
v 0.710975 0.236992 1.309729
v 0.710975 -0.236992 1.309729
v -1.200022 -0.400007 1.617312
v -1.200022 0.400007 1.617312
v 1.200022 0.400007 1.617312
v 1.200022 -0.400007 1.617312
v 0.333333 -1.000000 -1.000000
v -0.333333 -1.000000 -1.000000
v 0.333333 1.000000 1.000000
v -0.333333 1.000000 1.000000
v -0.333333 -1.000000 1.000000
v 0.333333 -1.000000 1.000000
v -0.333333 1.000000 -1.000000
v 0.333333 1.000000 -1.000000
v 0.236992 0.710975 1.309729
v -0.236992 0.710975 1.309729
v -0.236992 -0.710975 1.309729
v 0.236992 -0.710975 1.309729
v 0.400007 1.200022 1.617312
v -0.400007 1.200022 1.617312
v -0.400007 -1.200022 1.617312
v 0.400007 -1.200022 1.617312
v 0.663680 0.221227 -1.898148
v -0.309198 0.927595 -2.024329
v -0.503640 0.167880 -1.314862
v -0.503640 0.503640 -1.314862
v 0.503640 0.167880 -1.314862
v 0.503640 0.503640 -1.314862
v 0.167880 0.503640 -1.314862
v -0.503640 -0.167880 -1.314862
v 0.503640 -0.503640 -1.314862
v 0.503640 -0.167880 -1.314862
v -0.503640 -0.503640 -1.314862
v -0.167880 -0.503640 -1.314862
v -1.200022 0.400007 3.391979
v -1.040348 0.354647 3.551652
v -0.778434 0.778433 3.551652
v -0.894443 0.894443 3.391979
v 1.200022 -0.400007 3.391979
v 1.040348 -0.354647 3.551652
v 0.894443 -0.894443 3.391979
v 0.778433 -0.778434 3.551652
v -0.354647 1.040348 3.551652
v -0.400007 1.200022 3.391979
v 0.354647 -1.040348 3.551652
v 0.400007 -1.200022 3.391979
v -0.778434 -0.778434 3.551652
v -0.894443 -0.894443 3.391979
v -1.200022 -0.400007 3.391979
v -1.040348 -0.354647 3.551652
v 0.894443 0.894443 3.391979
v 0.778434 0.778433 3.551652
v 1.040348 0.354647 3.551652
v 1.200022 0.400007 3.391979
v 0.354647 1.040348 3.551652
v 0.400007 1.200022 3.391979
v -0.400007 -1.200022 3.391979
v -0.354647 -1.040348 3.551652
v 0.167880 -0.503640 -1.314862
v -0.167880 0.503640 -1.314862
v -0.325676 0.977028 -2.210290
v -0.739857 0.739857 -2.141627
v 0.720487 0.240162 -2.678349
v 0.311224 0.311224 -2.900538
v 0.311224 -0.311224 -2.900538
v 0.503640 0.167880 -1.615392
v 0.167880 0.503640 -1.615392
v -0.167880 -0.503640 -1.615392
v 0.503640 -0.167880 -1.615392
v -0.167880 0.503640 -1.615392
v -0.311224 -0.311224 -2.900538
v 0.503640 0.503640 -1.615392
v 0.167880 -0.503640 -1.615392
v -0.503640 -0.167880 -1.615392
v -0.503640 -0.503640 -1.615392
v -0.503640 0.167880 -1.615392
v -0.503640 0.503640 -1.615392
v 0.503640 -0.503640 -1.615392
v 0.221227 0.663680 -1.898148
v -0.221227 -0.663680 -1.898148
v 0.663680 -0.221227 -1.898148
v -0.221227 0.663680 -1.898148
v -0.717684 0.717684 -2.024329
v 0.572639 0.572639 -1.898148
v 0.221227 -0.663680 -1.898148
v -0.663680 -0.221227 -1.898148
v -0.572639 -0.572639 -1.898148
v -0.663680 0.221227 -1.898148
v -0.572639 0.572639 -1.898148
v 0.572639 -0.572639 -1.898148
v 0.240162 0.720487 -2.678349
v -0.240162 -0.720487 -2.678349
v 0.720487 -0.240162 -2.678349
v -0.240162 0.720487 -2.678349
v -0.311224 0.311224 -2.900538
v 0.607941 0.607941 -2.561049
v 0.240162 -0.720487 -2.678349
v -0.720487 -0.240162 -2.678349
v -0.607941 -0.607941 -2.561049
v -0.720487 0.240162 -2.678349
v -0.607941 0.607941 -2.561049
v 0.607941 -0.607941 -2.561049
v 0.325676 0.977028 -2.210290
v 0.309198 0.927595 -2.024329
v -0.977028 -0.325676 -2.210290
v -0.927595 -0.309198 -2.024329
v -0.927595 0.309198 -2.024329
v -0.977028 0.325676 -2.210290
v 0.325676 -0.977028 -2.210290
v 0.309198 -0.927595 -2.024329
v 0.977028 -0.325676 -2.210290
v 0.927595 -0.309198 -2.024329
v 0.717684 -0.717684 -2.024329
v 0.739857 -0.739857 -2.141627
v -0.325676 -0.977028 -2.210290
v -0.309198 -0.927595 -2.024329
v -0.717684 -0.717684 -2.024329
v -0.739857 -0.739857 -2.141627
v 0.739857 0.739857 -2.141627
v 0.717684 0.717684 -2.024329
v 0.927595 0.309198 -2.024329
v 0.977028 0.325676 -2.210290
v -1.000000 -1.000000 -0.333333
v -1.000000 -1.000000 0.333333
v 1.000000 1.000000 -0.333333
v 1.000000 1.000000 0.333333
v -1.000000 1.000000 0.333333
v -1.000000 1.000000 -0.333333
v 1.000000 -1.000000 0.333333
v 1.000000 -1.000000 -0.333333
v 1.000000 -0.333333 -0.333333
v 1.000000 -0.333333 0.333333
v 1.000000 0.333333 -0.333333
v 1.000000 0.333333 0.333333
v -1.000000 -0.333333 0.333333
v -1.000000 -0.333333 -0.333333
v -1.000000 0.333333 0.333333
v -1.000000 0.333333 -0.333333
v -0.333333 -1.000000 -0.566565
v -0.333333 -1.000000 0.566565
v 0.333333 -1.000000 -0.566565
v 0.333333 -1.000000 0.566565
v 0.333333 1.000000 -0.566565
v 0.333333 1.000000 0.566565
v -0.333333 1.000000 -0.566565
v -0.333333 1.000000 0.566565
vn -0.0000 1.0000 -0.0000
vn -0.7311 -0.0000 0.6822
vn -1.0000 -0.0000 -0.0000
vn -0.0000 -1.0000 -0.0000
vn 1.0000 -0.0000 -0.0000
vn -0.0000 -0.5357 -0.8444
vn -0.1915 0.6069 -0.7714
vn -0.0000 -0.7311 0.6822
vn -0.0000 0.7311 0.6822
vn 0.7311 -0.0000 0.6822
vn -0.6069 -0.1915 -0.7714
vn 0.1915 -0.6069 -0.7714
vn 0.6069 0.1915 -0.7714
vn 0.6069 -0.1915 -0.7714
vn 0.5324 -0.0000 -0.8465
vn -0.6069 0.1915 -0.7714
vn -0.5324 -0.0000 -0.8465
vn -0.8507 -0.5257 -0.0000
vn -0.5257 0.8507 -0.0000
vn 0.5357 -0.0000 -0.8444
vn -0.5357 -0.0000 -0.8444
vn -0.0000 0.5357 -0.8444
vn -0.5257 -0.8507 -0.0000
vn 0.8507 0.5257 -0.0000
vn -0.1915 -0.6069 -0.7714
vn -0.0000 -0.5324 -0.8465
vn -0.0000 -0.0000 1.0000
vn 0.1915 0.6069 -0.7714
vn -0.0000 0.5324 -0.8465
vn 0.5257 -0.8507 -0.0000
vn 0.5257 0.8507 -0.0000
vn 0.8507 -0.5257 -0.0000
vn 0.3717 -0.6015 0.7071
vn -0.3717 -0.6015 0.7071
vn -0.6015 0.3717 0.7071
vn -0.3717 0.6015 0.7071
vn 0.6015 0.3717 0.7071
vn -0.0000 0.7071 0.7071
vn -0.7071 -0.0000 0.7071
vn 0.3717 0.6015 0.7071
vn 0.6015 -0.3717 0.7071
vn -0.6015 -0.3717 0.7071
vn 0.7071 -0.0000 0.7071
vn -0.0000 -0.7071 0.7071
vn -0.8507 0.5257 -0.0000
vn -0.0000 0.8703 0.4926
vn 0.1207 0.9107 0.3950
vn -0.8703 -0.0000 0.4926
vn 0.1207 -0.9107 0.3950
vn -0.0000 -0.8703 0.4926
vn 0.8703 -0.0000 0.4926
vn 0.9107 -0.1207 0.3950
vn -0.1207 -0.9107 0.3950
vn 0.9107 0.1207 0.3950
vn -0.0000 0.8769 -0.4806
vn 0.4516 0.7714 -0.4483
vn -0.8769 -0.0000 -0.4806
vn 0.4516 -0.7714 -0.4483
vn -0.0000 -0.8769 -0.4806
vn 0.8769 -0.0000 -0.4806
vn 0.7714 -0.4516 -0.4483
vn -0.4516 -0.7714 -0.4483
vn 0.7714 0.4516 -0.4483
vn -0.9107 -0.1207 0.3950
vn -0.9107 0.1207 0.3950
vn -0.1207 0.9107 0.3950
vn 0.4447 0.4447 -0.7774
vn 0.4447 -0.4447 -0.7774
vn 0.4771 -0.0000 -0.8788
vn -0.4771 -0.0000 -0.8788
vn -0.0000 -0.0000 -1.0000
vn -0.4447 -0.4447 -0.7774
vn -0.0000 -0.4771 -0.8788
vn -0.4447 0.4447 -0.7774
vn -0.0000 0.4771 -0.8788
vn -0.7714 -0.4516 -0.4483
vn -0.7714 0.4516 -0.4483
vn -0.4516 0.7714 -0.4483
vn -0.1753 0.4427 0.8793
vn -0.4444 0.8575 0.2591
vn -0.4427 0.1753 0.8793
vn -0.8575 0.4444 0.2591
vn -0.4427 -0.1753 0.8793
vn -0.8575 -0.4444 0.2591
vn 0.4427 0.1753 0.8793
vn 0.8575 0.4444 0.2591
vn -0.1753 -0.4427 0.8793
vn -0.4444 -0.8575 0.2591
vn 0.4427 -0.1753 0.8793
vn 0.8575 -0.4444 0.2591
vn 0.4313 -0.0000 0.9022
vn 0.9664 -0.0000 0.2569
vn -0.0000 -0.4313 0.9022
vn -0.0000 -0.9664 0.2569
vn 0.1753 -0.4427 0.8793
vn 0.4444 -0.8575 0.2591
vn -0.4313 -0.0000 0.9022
vn -0.9664 -0.0000 0.2569
vn 0.1753 0.4427 0.8793
vn 0.4444 0.8575 0.2591
vn -0.0000 0.4313 0.9022
vn -0.0000 0.9664 0.2569
vt 0.625000 0.500000
vt 0.375000 0.500000
vt 0.625000 0.750000
vt 0.375000 0.750000
vt 0.625000 0.250000
vt 0.875000 0.500000
vt 0.375000 0.250000
vt 0.125000 0.500000
vt 0.875000 0.750000
vt 0.625000 0.000000
vt 0.125000 0.750000
vt 0.375000 0.000000
vt 0.375000 0.000000
vt 0.125000 0.750000
vt 0.875000 0.750000
vt 0.625000 0.000000
vt 0.625000 0.750000
vt 0.375000 0.750000
vt 0.375000 0.000000
vt 0.125000 0.750000
vt 0.875000 0.750000
vt 0.625000 0.000000
vt 0.625000 0.750000
vt 0.375000 0.750000
vt 0.541667 0.500000
vt 0.458333 0.500000
vt 0.458333 0.000000
vt 0.541667 0.000000
vt 0.541667 0.750000
vt 0.458333 0.750000
vt 0.541667 0.250000
vt 0.458333 0.250000
vt 0.458333 0.000000
vt 0.541667 0.000000
vt 0.541667 0.750000
vt 0.458333 0.750000
vt 0.458333 0.000000
vt 0.541667 0.000000
vt 0.541667 0.750000
vt 0.458333 0.750000
vt 0.291667 0.500000
vt 0.208333 0.500000
vt 0.708333 0.750000
vt 0.791667 0.750000
vt 0.208333 0.750000
vt 0.291667 0.750000
vt 0.791667 0.500000
vt 0.708333 0.500000
vt 0.708333 0.750000
vt 0.791667 0.750000
vt 0.208333 0.750000
vt 0.291667 0.750000
vt 0.708333 0.750000
vt 0.791667 0.750000
vt 0.208333 0.750000
vt 0.291667 0.750000
vt 0.541667 0.500000
vt 0.791667 0.500000
vt 0.541667 0.250000
vt 0.625000 0.250000
vt 0.875000 0.500000
vt 0.541667 0.500000
vt 0.625000 0.500000
vt 0.708333 0.500000
vt 0.458333 0.250000
vt 0.375000 0.500000
vt 0.458333 0.500000
vt 0.125000 0.500000
vt 0.375000 0.250000
vt 0.208333 0.500000
vt 0.541667 1.000000
vt 0.541667 0.000000
vt 0.540335 0.987164
vt 0.602018 0.977018
vt 0.875000 0.750000
vt 0.625000 1.000000
vt 0.625000 0.000000
vt 0.458333 0.750000
vt 0.459665 0.762836
vt 0.375000 0.750000
vt 0.397982 0.772982
vt 0.612164 0.915335
vt 0.791667 0.750000
vt 0.625000 0.916667
vt 0.387836 0.834665
vt 0.291667 0.750000
vt 0.375000 0.833333
vt 0.397982 0.977018
vt 0.375000 0.000000
vt 0.125000 0.750000
vt 0.375000 1.000000
vt 0.458333 0.000000
vt 0.458333 1.000000
vt 0.459665 0.987164
vt 0.625000 0.750000
vt 0.602018 0.772982
vt 0.540335 0.762836
vt 0.541667 0.750000
vt 0.612164 0.834665
vt 0.708333 0.750000
vt 0.625000 0.833333
vt 0.208333 0.750000
vt 0.375000 0.916667
vt 0.387836 0.915335
vt 0.291667 0.500000
vt 0.791667 0.500000
vt 0.791667 0.500000
vt 0.875000 0.500000
vt 0.625000 0.250000
vt 0.541667 0.500000
vt 0.541667 0.416667
vt 0.458333 0.416667
vt 0.541667 0.500000
vt 0.708333 0.500000
vt 0.208333 0.500000
vt 0.458333 0.500000
vt 0.791667 0.500000
vt 0.458333 0.333333
vt 0.625000 0.500000
vt 0.291667 0.500000
vt 0.458333 0.250000
vt 0.125000 0.500000
vt 0.375000 0.250000
vt 0.541667 0.250000
vt 0.625000 0.250000
vt 0.875000 0.500000
vt 0.375000 0.500000
vt 0.708333 0.500000
vt 0.208333 0.500000
vt 0.458333 0.500000
vt 0.791667 0.500000
vt 0.875000 0.500000
vt 0.625000 0.250000
vt 0.625000 0.500000
vt 0.291667 0.500000
vt 0.458333 0.250000
vt 0.375000 0.250000
vt 0.125000 0.500000
vt 0.541667 0.250000
vt 0.875000 0.500000
vt 0.625000 0.250000
vt 0.375000 0.500000
vt 0.708333 0.500000
vt 0.625000 0.416667
vt 0.208333 0.500000
vt 0.375000 0.333333
vt 0.458333 0.500000
vt 0.625000 0.333333
vt 0.791667 0.500000
vt 0.541667 0.333333
vt 0.625000 0.500000
vt 0.291667 0.500000
vt 0.375000 0.416667
vt 0.458333 0.250000
vt 0.125000 0.500000
vt 0.375000 0.250000
vt 0.541667 0.250000
vt 0.625000 0.250000
vt 0.875000 0.500000
vt 0.375000 0.500000
vt 0.708333 0.500000
vt 0.708333 0.500000
vt 0.458333 0.250000
vt 0.458333 0.250000
vt 0.541667 0.250000
vt 0.541667 0.250000
vt 0.291667 0.500000
vt 0.291667 0.500000
vt 0.458333 0.500000
vt 0.458333 0.500000
vt 0.375000 0.500000
vt 0.375000 0.500000
vt 0.208333 0.500000
vt 0.208333 0.500000
vt 0.375000 0.250000
vt 0.125000 0.500000
vt 0.375000 0.250000
vt 0.125000 0.500000
vt 0.625000 0.500000
vt 0.625000 0.500000
vt 0.541667 0.500000
vt 0.541667 0.500000
vt 0.125000 0.583333
vt 0.375000 0.166667
vt 0.125000 0.666667
vt 0.375000 0.083333
vt 0.625000 0.583333
vt 0.625000 0.666667
vt 0.625000 0.083333
vt 0.875000 0.666667
vt 0.625000 0.166667
vt 0.875000 0.583333
vt 0.375000 0.666667
vt 0.375000 0.583333
vt 0.458333 0.583333
vt 0.458333 0.666667
vt 0.541667 0.583333
vt 0.541667 0.666667
vt 0.458333 0.083333
vt 0.458333 0.166667
vt 0.541667 0.083333
vt 0.541667 0.166667
vt 0.208333 0.583333
vt 0.208333 0.666667
vt 0.291667 0.583333
vt 0.291667 0.666667
vt 0.708333 0.583333
vt 0.708333 0.666667
vt 0.791667 0.583333
vt 0.791667 0.666667
s 0
usemtl Material
f 172/210/1 153/190/1 7/9/1 36/44/1
f 19/27/2 8/12/2 9/13/2 25/33/2
f 164/202/3 154/191/3 5/5/3 23/31/3
f 168/206/4 155/193/4 4/4/4 38/46/4
f 160/198/5 152/188/5 3/3/5 21/29/5
f 34/42/6 6/8/6 59/68/6 60/70/6
f 42/50/7 10/15/7 14/21/7 46/54/7
f 38/46/8 4/4/8 12/18/8 44/52/8
f 36/44/9 7/9/9 10/15/9 42/50/9
f 21/29/10 3/3/10 11/17/10 27/35/10
f 85/105/4 60/70/4 94/115/4 99/120/4
f 25/33/11 9/13/11 13/19/11 29/37/11
f 44/52/12 12/18/12 16/24/12 48/56/12
f 27/35/13 11/17/13 15/23/13 31/39/13
f 12/18/14 28/36/14 32/40/14 16/24/14
f 28/36/15 27/35/15 31/39/15 32/40/15
f 10/16/16 26/34/16 30/38/16 14/22/16
f 26/34/17 25/33/17 29/37/17 30/38/17
f 29/37/18 13/19/18 74/89/18 75/92/18
f 46/54/19 14/21/19 64/75/19 70/83/19
f 4/4/10 22/30/10 28/36/10 12/18/10
f 22/30/10 21/29/10 27/35/10 28/36/10
f 1/1/20 17/25/20 53/62/20 54/63/20
f 23/31/21 5/5/21 52/60/21 51/59/21
f 155/193/5 158/196/5 22/30/5 4/4/5
f 158/196/5 160/198/5 21/29/5 22/30/5
f 149/184/3 162/200/3 24/32/3 6/7/3
f 162/200/3 164/202/3 23/31/3 24/32/3
f 7/10/2 20/28/2 26/34/2 10/16/2
f 20/28/2 19/27/2 25/33/2 26/34/2
f 40/48/22 1/1/22 54/63/22 55/64/22
f 33/41/6 34/42/6 60/70/6 85/105/6
f 39/47/22 40/48/22 55/64/22 86/106/22
f 2/2/6 33/41/6 85/105/6 57/66/6
f 45/53/1 46/54/1 70/83/1 82/100/1
f 13/20/23 47/55/23 83/102/23 74/90/23
f 30/38/3 29/37/3 75/92/3 61/72/3
f 31/39/24 15/23/24 77/95/24 80/98/24
f 9/14/25 43/51/25 47/55/25 13/20/25
f 43/51/26 44/52/26 48/56/26 47/55/26
f 69/82/27 63/74/27 62/73/27 76/94/27 73/88/27 84/104/27 71/85/27 68/81/27 66/79/27 79/97/27 78/96/27 81/99/27
f 32/40/5 31/39/5 80/98/5 65/78/5
f 3/3/9 35/43/9 41/49/9 11/17/9
f 35/43/9 36/44/9 42/50/9 41/49/9
f 8/11/8 37/45/8 43/51/8 9/14/8
f 37/45/8 38/46/8 44/52/8 43/51/8
f 11/17/28 41/49/28 45/53/28 15/23/28
f 41/49/29 42/50/29 46/54/29 45/53/29
f 18/26/20 2/2/20 57/66/20 58/67/20
f 17/25/20 18/26/20 58/67/20 53/62/20
f 150/185/4 166/204/4 37/45/4 8/11/4
f 166/204/4 168/206/4 38/46/4 37/45/4
f 152/188/1 170/208/1 35/43/1 3/3/1
f 170/208/1 172/210/1 36/44/1 35/43/1
f 48/56/30 16/24/30 67/80/30 72/86/30
f 15/23/31 45/53/31 82/100/31 77/95/31
f 47/55/4 48/56/4 72/86/4 83/102/4
f 16/24/32 32/40/32 65/78/32 67/80/32
f 72/87/33 67/80/33 68/81/33 71/85/33
f 74/91/34 83/103/34 84/104/34 73/88/34
f 62/73/35 63/74/35 64/76/35 61/71/35
f 70/84/36 64/76/36 63/74/36 69/82/36
f 78/96/37 79/97/37 80/98/37 77/95/37
f 82/101/38 70/84/38 69/82/38 81/99/38
f 76/94/39 62/73/39 61/71/39 75/93/39
f 77/95/40 82/101/40 81/99/40 78/96/40
f 66/79/41 68/81/41 67/80/41 65/78/41
f 73/88/42 76/94/42 75/93/42 74/91/42
f 79/97/43 66/79/43 65/78/43 80/98/43
f 83/103/44 72/87/44 71/85/44 84/104/44
f 14/22/45 30/38/45 61/72/45 64/77/45
f 53/62/5 58/67/5 95/116/5 92/113/5
f 51/59/3 52/60/3 103/125/3 102/124/3
f 59/69/3 56/65/3 100/121/3 101/123/3
f 55/64/1 54/63/1 98/119/1 93/114/1
f 56/65/3 51/59/3 102/124/3 100/121/3
f 57/66/4 85/105/4 99/120/4 104/127/4
f 58/67/5 57/66/5 104/127/5 95/116/5
f 60/70/4 59/68/4 101/122/4 94/115/4
f 24/32/21 23/31/21 51/59/21 56/65/21
f 5/6/22 39/47/22 86/106/22 52/61/22
f 6/7/21 24/32/21 56/65/21 59/69/21
f 96/117/46 93/114/46 105/128/46 108/131/46
f 93/114/47 98/119/47 110/134/47 105/128/47
f 100/121/48 102/124/48 114/139/48 112/136/48
f 104/127/49 99/120/49 111/135/49 116/142/49
f 99/120/50 94/115/50 106/129/50 111/135/50
f 92/113/51 95/116/51 107/130/51 49/57/51
f 95/116/52 104/127/52 116/142/52 107/130/52
f 94/115/53 101/122/53 113/138/53 106/129/53
f 98/119/54 92/113/54 49/57/54 110/134/54
f 52/61/1 86/106/1 96/117/1 103/126/1
f 54/63/5 53/62/5 92/113/5 98/119/5
f 86/106/1 55/64/1 93/114/1 96/117/1
f 87/107/55 129/161/55 117/143/55 120/149/55
f 129/161/56 145/179/56 122/151/56 117/143/56
f 131/163/57 134/166/57 126/157/57 124/154/57
f 140/172/58 135/167/58 123/152/58 128/160/58
f 135/167/59 141/173/59 118/145/59 123/152/59
f 148/182/60 137/169/60 119/147/60 89/110/60
f 137/169/61 140/172/61 128/160/61 119/147/61
f 141/173/62 144/178/62 125/155/62 118/145/62
f 145/179/63 148/182/63 89/110/63 122/151/63
f 101/123/64 100/121/64 112/136/64 113/137/64
f 102/124/65 103/125/65 115/141/65 114/139/65
f 103/126/66 96/117/66 108/131/66 115/140/66
f 90/111/67 117/144/67 122/151/67 89/110/67
f 123/153/68 91/112/68 119/147/68 128/160/68
f 91/112/69 90/111/69 89/110/69 119/147/69
f 124/154/70 126/157/70 121/150/70 97/118/70
f 97/118/71 121/150/71 90/111/71 91/112/71
f 125/156/72 124/154/72 97/118/72 118/146/72
f 118/146/73 97/118/73 91/112/73 123/153/73
f 126/157/74 127/158/74 120/148/74 121/150/74
f 121/150/75 120/148/75 117/144/75 90/111/75
f 144/177/76 131/163/76 124/154/76 125/156/76
f 134/166/77 88/109/77 127/158/77 126/157/77
f 88/108/78 87/107/78 120/149/78 127/159/78
f 115/140/79 108/131/79 50/58/79 109/132/79
f 109/132/80 50/58/80 87/107/80 88/108/80
f 114/139/81 115/141/81 109/133/81 133/165/81
f 133/165/82 109/133/82 88/109/82 134/166/82
f 113/137/83 112/136/83 132/164/83 143/175/83
f 143/175/84 132/164/84 131/163/84 144/177/84
f 110/134/85 49/57/85 147/181/85 146/180/85
f 146/180/86 147/181/86 148/182/86 145/179/86
f 106/129/87 113/138/87 143/176/87 142/174/87
f 142/174/88 143/176/88 144/178/88 141/173/88
f 107/130/89 116/142/89 139/171/89 138/170/89
f 138/170/90 139/171/90 140/172/90 137/169/90
f 49/57/91 107/130/91 138/170/91 147/181/91
f 147/181/92 138/170/92 137/169/92 148/182/92
f 111/135/93 106/129/93 142/174/93 136/168/93
f 136/168/94 142/174/94 141/173/94 135/167/94
f 116/142/95 111/135/95 136/168/95 139/171/95
f 139/171/96 136/168/96 135/167/96 140/172/96
f 112/136/97 114/139/97 133/165/97 132/164/97
f 132/164/98 133/165/98 134/166/98 131/163/98
f 105/128/99 110/134/99 146/180/99 130/162/99
f 130/162/100 146/180/100 145/179/100 129/161/100
f 108/131/101 105/128/101 130/162/101 50/58/101
f 50/58/102 130/162/102 129/161/102 87/107/102
f 40/48/1 39/47/1 171/209/1 169/207/1
f 170/208/3 169/207/3 167/205/3 168/206/3
f 1/1/1 40/48/1 169/207/1 151/187/1
f 151/187/1 169/207/1 170/208/1 152/188/1
f 34/42/4 33/41/4 167/205/4 165/203/4
f 172/210/71 170/208/71 168/206/71 166/204/71
f 6/8/4 34/42/4 165/203/4 149/183/4
f 149/183/4 165/203/4 166/204/4 150/185/4
f 19/27/3 20/28/3 163/201/3 161/199/3
f 161/199/3 163/201/3 164/202/3 162/200/3
f 8/12/3 19/27/3 161/199/3 150/186/3
f 150/186/3 161/199/3 162/200/3 149/184/3
f 18/26/5 17/25/5 159/197/5 157/195/5
f 157/195/5 159/197/5 160/198/5 158/196/5
f 2/2/5 18/26/5 157/195/5 156/194/5
f 156/194/5 157/195/5 158/196/5 155/193/5
f 17/25/5 1/1/5 151/187/5 159/197/5
f 159/197/5 151/187/5 152/188/5 160/198/5
f 33/41/4 2/2/4 156/194/4 167/205/4
f 167/205/4 156/194/4 155/193/4 168/206/4
f 20/28/3 7/10/3 153/189/3 163/201/3
f 163/201/3 153/189/3 154/191/3 164/202/3
f 39/47/1 5/6/1 154/192/1 171/209/1
f 171/209/1 154/192/1 153/190/1 172/210/1
f 169/207/27 171/209/27 165/203/27 167/205/27
f 171/209/5 172/210/5 166/204/5 165/203/5
